<?xml version="1.0" encoding="UTF-8" standalone="no"?>
<svg
   xmlns:dc="http://purl.org/dc/elements/1.1/"
   xmlns:cc="http://creativecommons.org/ns#"
   xmlns:rdf="http://www.w3.org/1999/02/22-rdf-syntax-ns#"
   xmlns:svg="http://www.w3.org/2000/svg"
   xmlns="http://www.w3.org/2000/svg"
   xmlns:sodipodi="http://sodipodi.sourceforge.net/DTD/sodipodi-0.dtd"
   xmlns:inkscape="http://www.inkscape.org/namespaces/inkscape"
   width="31.950001mm"
   height="31.950001mm"
   viewBox="0 0 31.950001 31.950001"
   version="1.1"
   id="svg8"
   inkscape:version="1.0.1 (3bc2e813f5, 2020-09-07)"
   sodipodi:docname="blight_1.svg">
  <defs
     id="defs2" />
  <sodipodi:namedview
     id="base"
     pagecolor="#ffffff"
     bordercolor="#666666"
     borderopacity="1.0"
     inkscape:pageopacity="0.0"
     inkscape:pageshadow="2"
     inkscape:zoom="5.6"
     inkscape:cx="62.270373"
     inkscape:cy="70.781018"
     inkscape:document-units="mm"
     inkscape:current-layer="layer1"
     inkscape:document-rotation="0"
     showgrid="false"
     inkscape:window-width="1920"
     inkscape:window-height="1017"
     inkscape:window-x="-8"
     inkscape:window-y="-8"
     inkscape:window-maximized="1" />
  <metadata
     id="metadata5">
    <rdf:RDF>
      <cc:Work
         rdf:about="">
        <dc:format>image/svg+xml</dc:format>
        <dc:type
           rdf:resource="http://purl.org/dc/dcmitype/StillImage" />
        <dc:title />
      </cc:Work>
    </rdf:RDF>
  </metadata>
  <g
     inkscape:label="Layer 1"
     inkscape:groupmode="layer"
     id="layer1"
     transform="translate(-10.51808,-87.980849)">
    <rect
       style="opacity:1;fill:#f7ffff;fill-opacity:0.7019608;fill-rule:evenodd;stroke:#121212;stroke-width:0.2;stroke-miterlimit:4;stroke-dasharray:none;stroke-opacity:0.95"
       id="rect50-0-3"
       width="31.75"
       height="31.75"
       x="10.61808"
       y="88.080849"
       ry="4.4065886" />
    <g
       aria-label="B"
       id="text78"
       style="font-size:25.4px;line-height:1.25;font-family:'DM Mono';-inkscape-font-specification:'DM Mono';fill:#ffffff;stroke-width:0.264583">
      <path
         d="m 20.575211,112.82589 v -17.78 h 5.9182 q 2.7686,0 4.1656,1.27 1.397,1.27 1.397,3.2512 0,1.5494 -0.8382,2.5654 -0.8382,0.9906 -1.8796,1.397 v 0.1778 q 1.2446,0.4064 2.1844,1.4732 0.9398,1.0668 0.9398,2.7432 0,1.3716 -0.6858,2.4892 -0.6604,1.0922 -1.9558,1.7526 -1.27,0.6604 -3.1242,0.6604 z m 2.1336,-10.1092 h 3.6322 q 1.7018,0 2.5908,-0.7366 0.9144,-0.762 0.9144,-2.1844 0,-1.3462 -0.889,-2.0828 -0.889,-0.7366 -2.6924,-0.7366 h -3.556 z m 0,8.1534 h 3.7592 q 1.8288,0 2.8194,-0.8128 0.9906,-0.8382 0.9906,-2.3368 0,-1.4986 -1.0414,-2.3114 -1.0414,-0.8382 -2.8194,-0.8382 h -3.7084 z"
         style="opacity:0.95;fill:#121212;fill-opacity:1;stroke-width:0.264583"
         id="path833" />
    </g>
  </g>
</svg>
