<?xml version="1.0" encoding="UTF-8" standalone="no"?>
<svg
   xmlns:dc="http://purl.org/dc/elements/1.1/"
   xmlns:cc="http://creativecommons.org/ns#"
   xmlns:rdf="http://www.w3.org/1999/02/22-rdf-syntax-ns#"
   xmlns:svg="http://www.w3.org/2000/svg"
   xmlns="http://www.w3.org/2000/svg"
   xmlns:sodipodi="http://sodipodi.sourceforge.net/DTD/sodipodi-0.dtd"
   xmlns:inkscape="http://www.inkscape.org/namespaces/inkscape"
   width="31.950001mm"
   height="31.950001mm"
   viewBox="0 0 31.950001 31.950001"
   version="1.1"
   id="svg8"
   inkscape:version="1.0.1 (3bc2e813f5, 2020-09-07)"
   sodipodi:docname="c_3.svg">
  <defs
     id="defs2" />
  <sodipodi:namedview
     id="base"
     pagecolor="#ffffff"
     bordercolor="#666666"
     borderopacity="1.0"
     inkscape:pageopacity="0.0"
     inkscape:pageshadow="2"
     inkscape:zoom="4"
     inkscape:cx="-26.013049"
     inkscape:cy="77.087455"
     inkscape:document-units="mm"
     inkscape:current-layer="layer1"
     inkscape:document-rotation="0"
     showgrid="false"
     inkscape:window-width="1920"
     inkscape:window-height="1017"
     inkscape:window-x="-8"
     inkscape:window-y="-8"
     inkscape:window-maximized="1" />
  <metadata
     id="metadata5">
    <rdf:RDF>
      <cc:Work
         rdf:about="">
        <dc:format>image/svg+xml</dc:format>
        <dc:type
           rdf:resource="http://purl.org/dc/dcmitype/StillImage" />
        <dc:title />
      </cc:Work>
    </rdf:RDF>
  </metadata>
  <g
     inkscape:label="Layer 1"
     inkscape:groupmode="layer"
     id="layer1"
     transform="translate(-10.51808,-87.980849)">
    <rect
       style="opacity:1;fill:#f7ffff;fill-opacity:0.7028113;fill-rule:evenodd;stroke:#000000;stroke-width:0.2;stroke-miterlimit:4;stroke-dasharray:none;stroke-opacity:0.95"
       id="rect50-0-3"
       width="31.75"
       height="31.75"
       x="10.61808"
       y="88.080849"
       ry="4.4065886" />
    <g
       aria-label="C"
       id="text78"
       style="font-size:25.4px;line-height:1.25;font-family:'DM Mono';-inkscape-font-specification:'DM Mono';fill:#ffffff;stroke-width:0.264583">
      <path
         d="m 26.645811,113.13069 q -2.159,0 -3.7338,-1.143 -1.5494,-1.143 -2.3876,-3.2004 -0.8128,-2.0574 -0.8128,-4.8514 0,-2.7686 0.8128,-4.826 0.8382,-2.0828 2.3876,-3.2258 1.5748,-1.143 3.7338,-1.143 2.7432,0 4.4196,1.524 1.6764,1.4986 1.9558,4.0132 h -2.3622 q -0.254,-1.4986 -1.27,-2.5146 -1.016,-1.016 -2.7432,-1.016 -2.2098,0 -3.4798,1.9304 -1.27,1.905 -1.27,5.2578 0,3.3782 1.27,5.2832 1.27,1.905 3.4798,1.905 1.8034,0 2.7686,-0.9652 0.9906,-0.9652 1.2446,-2.4892 h 2.3622 q -0.4064,2.54 -2.032,4.0132 -1.6002,1.4478 -4.3434,1.4478 z"
         style="fill:#121212;fill-opacity:0.95;stroke-width:0.264583"
         id="path833" />
    </g>
  </g>
</svg>
