<?xml version="1.0" encoding="UTF-8" standalone="no"?>
<svg
   xmlns:dc="http://purl.org/dc/elements/1.1/"
   xmlns:cc="http://creativecommons.org/ns#"
   xmlns:rdf="http://www.w3.org/1999/02/22-rdf-syntax-ns#"
   xmlns:svg="http://www.w3.org/2000/svg"
   xmlns="http://www.w3.org/2000/svg"
   xmlns:sodipodi="http://sodipodi.sourceforge.net/DTD/sodipodi-0.dtd"
   xmlns:inkscape="http://www.inkscape.org/namespaces/inkscape"
   width="31.950001mm"
   height="31.950001mm"
   viewBox="0 0 31.950001 31.950001"
   version="1.1"
   id="svg8"
   inkscape:version="1.0.1 (3bc2e813f5, 2020-09-07)"
   sodipodi:docname="o_2.svg">
  <defs
     id="defs2" />
  <sodipodi:namedview
     id="base"
     pagecolor="#ffffff"
     bordercolor="#666666"
     borderopacity="1.0"
     inkscape:pageopacity="0.0"
     inkscape:pageshadow="2"
     inkscape:zoom="5.6"
     inkscape:cx="7.4333702"
     inkscape:cy="59.75898"
     inkscape:document-units="mm"
     inkscape:current-layer="layer1"
     inkscape:document-rotation="0"
     showgrid="false"
     inkscape:window-width="1920"
     inkscape:window-height="1017"
     inkscape:window-x="-8"
     inkscape:window-y="-8"
     inkscape:window-maximized="1" />
  <metadata
     id="metadata5">
    <rdf:RDF>
      <cc:Work
         rdf:about="">
        <dc:format>image/svg+xml</dc:format>
        <dc:type
           rdf:resource="http://purl.org/dc/dcmitype/StillImage" />
        <dc:title />
      </cc:Work>
    </rdf:RDF>
  </metadata>
  <g
     inkscape:label="Layer 1"
     inkscape:groupmode="layer"
     id="layer1"
     transform="translate(-10.51808,-87.980849)">
    <rect
       style="opacity:1;fill:#f7ffff;fill-opacity:0.7019608;fill-rule:evenodd;stroke:#000000;stroke-width:0.2;stroke-miterlimit:4;stroke-dasharray:none;stroke-opacity:0.95"
       id="rect50-0-3"
       width="31.75"
       height="31.75"
       x="10.61808"
       y="88.080849"
       ry="4.4065886" />
    <g
       aria-label="O"
       id="text78"
       style="font-size:25.4px;line-height:1.25;font-family:'DM Mono';-inkscape-font-specification:'DM Mono';fill:#ffffff;stroke-width:0.264583">
      <path
         d="m 26.518811,113.13069 q -2.159,0 -3.7084,-1.143 -1.5494,-1.143 -2.3876,-3.2004 -0.8128,-2.0828 -0.8128,-4.8514 0,-2.7686 0.8128,-4.826 0.8382,-2.0828 2.3876,-3.2258 1.5494,-1.143 3.7084,-1.143 2.159,0 3.7084,1.143 1.5494,1.143 2.3622,3.2258 0.8382,2.0574 0.8382,4.826 0,2.7686 -0.8382,4.8514 -0.8128,2.0574 -2.3622,3.2004 -1.5494,1.143 -3.7084,1.143 z m 0,-2.0066 q 2.1082,0 3.4036,-1.8796 1.3208,-1.8796 1.3208,-5.3086 0,-3.429 -1.3208,-5.3086 -1.2954,-1.8796 -3.4036,-1.8796 -2.1336,0 -3.429,1.8796 -1.2954,1.8796 -1.2954,5.3086 0,3.429 1.2954,5.3086 1.2954,1.8796 3.429,1.8796 z"
         style="fill:#121212;fill-opacity:0.95;stroke-width:0.264583"
         id="path833" />
    </g>
  </g>
</svg>
