<?xml version="1.0" encoding="UTF-8" standalone="no"?>
<svg
   xmlns:dc="http://purl.org/dc/elements/1.1/"
   xmlns:cc="http://creativecommons.org/ns#"
   xmlns:rdf="http://www.w3.org/1999/02/22-rdf-syntax-ns#"
   xmlns:svg="http://www.w3.org/2000/svg"
   xmlns="http://www.w3.org/2000/svg"
   xmlns:sodipodi="http://sodipodi.sourceforge.net/DTD/sodipodi-0.dtd"
   xmlns:inkscape="http://www.inkscape.org/namespaces/inkscape"
   width="31.950001mm"
   height="31.950001mm"
   viewBox="0 0 31.950001 31.950001"
   version="1.1"
   id="svg8"
   inkscape:version="1.0.1 (3bc2e813f5, 2020-09-07)"
   sodipodi:docname="semicolonlight_1.svg">
  <defs
     id="defs2" />
  <sodipodi:namedview
     id="base"
     pagecolor="#ffffff"
     bordercolor="#666666"
     borderopacity="1.0"
     inkscape:pageopacity="0.0"
     inkscape:pageshadow="2"
     inkscape:zoom="5.6"
     inkscape:cx="65.798279"
     inkscape:cy="56.212241"
     inkscape:document-units="mm"
     inkscape:current-layer="layer1"
     inkscape:document-rotation="0"
     showgrid="false"
     inkscape:window-width="1920"
     inkscape:window-height="1017"
     inkscape:window-x="-8"
     inkscape:window-y="-8"
     inkscape:window-maximized="1" />
  <metadata
     id="metadata5">
    <rdf:RDF>
      <cc:Work
         rdf:about="">
        <dc:format>image/svg+xml</dc:format>
        <dc:type
           rdf:resource="http://purl.org/dc/dcmitype/StillImage" />
        <dc:title />
      </cc:Work>
    </rdf:RDF>
  </metadata>
  <g
     inkscape:label="Layer 1"
     inkscape:groupmode="layer"
     id="layer1"
     transform="translate(-10.51808,-87.980849)">
    <rect
       style="opacity:0.95;fill:#f7ffff;fill-opacity:0.7019608;fill-rule:evenodd;stroke:#121212;stroke-width:0.2;stroke-miterlimit:4;stroke-dasharray:none;stroke-opacity:1"
       id="rect50-0-3"
       width="31.75"
       height="31.75"
       x="10.61808"
       y="88.080849"
       ry="4.4065886" />
    <g
       aria-label=";"
       id="text78"
       style="font-size:25.4px;line-height:1.25;font-family:'DM Mono';-inkscape-font-specification:'DM Mono';fill:#ffffff;stroke-width:0.264583">
      <path
         d="m 26.518811,102.84369 q -0.7874,0 -1.3462,-0.5334 -0.5588,-0.5334 -0.5588,-1.3208 0,-0.762 0.5588,-1.2954 0.5588,-0.5334 1.3462,-0.5334 0.7874,0 1.3462,0.5334 0.5588,0.5334 0.5588,1.2954 0,0.7874 -0.5588,1.3208 -0.5588,0.5334 -1.3462,0.5334 z m -3.4544,13.081 2.2352,-6.8326 h 2.8194 l -3.0226,6.8326 z"
         style="opacity:0.95;fill:#121212;fill-opacity:1;stroke-width:0.264583"
         id="path835" />
    </g>
    <g
       aria-label=":"
       id="text28"
       style="font-size:16.9333px;line-height:1.25;font-family:'Open Sans';-inkscape-font-specification:'Open Sans';opacity:0.95;fill:#121212;fill-opacity:1;stroke-width:0.264583">
      <path
         d="m 13.871722,99.00378 q 0,-0.55397 0.248047,-0.835089 0.256314,-0.289388 0.727602,-0.289388 0.479557,0 0.74414,0.289388 0.272851,0.281119 0.272851,0.835089 0,0.537434 -0.272851,0.826822 -0.272851,0.289388 -0.74414,0.289388 -0.421678,0 -0.702798,-0.256316 -0.272851,-0.264582 -0.272851,-0.859894 z m 0,-7.300832 q 0,-1.116208 0.975649,-1.116208 1.016991,0 1.016991,1.116208 0,0.537434 -0.272851,0.826822 -0.272851,0.289387 -0.74414,0.289387 -0.421678,0 -0.702798,-0.256315 -0.272851,-0.264582 -0.272851,-0.859894 z"
         style="font-size:16.9333px;fill:#121212;fill-opacity:1;stroke-width:0.264583"
         id="path838" />
    </g>
  </g>
</svg>
