<?xml version="1.0" encoding="UTF-8" standalone="no"?>
<svg
   xmlns:dc="http://purl.org/dc/elements/1.1/"
   xmlns:cc="http://creativecommons.org/ns#"
   xmlns:rdf="http://www.w3.org/1999/02/22-rdf-syntax-ns#"
   xmlns:svg="http://www.w3.org/2000/svg"
   xmlns="http://www.w3.org/2000/svg"
   xmlns:sodipodi="http://sodipodi.sourceforge.net/DTD/sodipodi-0.dtd"
   xmlns:inkscape="http://www.inkscape.org/namespaces/inkscape"
   width="110.84042mm"
   height="21.223444mm"
   viewBox="0 0 110.84042 21.223444"
   version="1.1"
   id="svg8"
   inkscape:version="1.0.1 (3bc2e813f5, 2020-09-07)"
   sodipodi:docname="text.svg">
  <defs
     id="defs2" />
  <sodipodi:namedview
     id="base"
     pagecolor="#ffffff"
     bordercolor="#666666"
     borderopacity="1.0"
     inkscape:pageopacity="0.0"
     inkscape:pageshadow="2"
     inkscape:zoom="1.979899"
     inkscape:cx="269.67578"
     inkscape:cy="115.75494"
     inkscape:document-units="mm"
     inkscape:current-layer="layer1"
     inkscape:document-rotation="0"
     showgrid="false"
     inkscape:window-width="1920"
     inkscape:window-height="1017"
     inkscape:window-x="-8"
     inkscape:window-y="-8"
     inkscape:window-maximized="1" />
  <metadata
     id="metadata5">
    <rdf:RDF>
      <cc:Work
         rdf:about="">
        <dc:format>image/svg+xml</dc:format>
        <dc:type
           rdf:resource="http://purl.org/dc/dcmitype/StillImage" />
        <dc:title />
      </cc:Work>
    </rdf:RDF>
  </metadata>
  <g
     inkscape:label="Layer 1"
     inkscape:groupmode="layer"
     id="layer1"
     transform="translate(-24.754121,-125.66922)">
    <g
       aria-label="A Definitive Changelog
Of Progress"
       id="text95"
       style="font-size:10.5833px;line-height:0;font-family:'Open Sans';-inkscape-font-specification:'Open Sans';fill:#f7ffff;fill-opacity:0.701961;stroke-width:0.2;stroke-miterlimit:4;stroke-dasharray:none">
      <path
         d="m 30.541863,133.76689 -0.940508,-2.40294 h -3.028229 l -0.930173,2.40294 h -0.888832 l 2.986889,-7.58607 h 0.73897 l 2.971386,7.58607 z m -1.214392,-3.19359 -0.878497,-2.34094 q -0.170531,-0.44441 -0.351398,-1.09037 -0.113688,0.4961 -0.325561,1.09037 l -0.888832,2.34094 z"
         style="line-height:1;text-align:center;text-anchor:middle;fill:#f7ffff;fill-opacity:0.701961;stroke:#121212;stroke-width:0.2;stroke-miterlimit:4;stroke-dasharray:none;stroke-opacity:0.94902"
         id="path833" />
      <path
         d="m 41.269856,129.91701 q 0,1.87068 -1.018022,2.86286 -1.012855,0.98702 -2.919709,0.98702 h -2.092889 v -7.55507 h 2.315097 q 1.76216,0 2.738842,0.97668 0.976681,0.97668 0.976681,2.72851 z m -0.930173,0.031 q 0,-1.47795 -0.744138,-2.22725 -0.73897,-0.74931 -2.201409,-0.74931 h -1.276404 v 6.03579 h 1.069699 q 1.570959,0 2.361606,-0.76998 0.790646,-0.77514 0.790646,-2.28925 z"
         style="line-height:1;text-align:center;text-anchor:middle;fill:#f7ffff;fill-opacity:0.701961;stroke:#121212;stroke-width:0.2;stroke-miterlimit:4;stroke-dasharray:none;stroke-opacity:0.94902"
         id="path835" />
      <path
         d="m 45.217923,133.87024 q -1.255734,0 -1.984369,-0.7648 -0.723468,-0.76481 -0.723468,-2.1239 0,-1.36942 0.671792,-2.17557 0.676959,-0.80615 1.813837,-0.80615 1.064531,0 1.684646,0.7028 0.620115,0.69763 0.620115,1.84484 v 0.5426 h -3.901558 q 0.02584,0.99735 0.50126,1.51412 0.480589,0.51676 1.34875,0.51676 0.91467,0 1.80867,-0.38241 v 0.76481 q -0.454751,0.19637 -0.862994,0.27905 -0.403075,0.0879 -0.976681,0.0879 z m -0.232544,-5.15212 q -0.682126,0 -1.090369,0.44442 -0.403075,0.44441 -0.475422,1.22989 h 2.961051 q 0,-0.81132 -0.361734,-1.24023 -0.361734,-0.43408 -1.033526,-0.43408 z"
         style="line-height:1;text-align:center;text-anchor:middle;fill:#f7ffff;fill-opacity:0.701961;stroke:#121212;stroke-width:0.2;stroke-miterlimit:4;stroke-dasharray:none;stroke-opacity:0.94902"
         id="path837" />
      <path
         d="m 51.315722,128.7698 h -1.441768 v 4.99709 h -0.857826 v -4.99709 h -1.012855 v -0.38758 l 1.012855,-0.31005 v -0.31523 q 0,-2.08772 1.824172,-2.08772 0.449584,0 1.054196,0.18087 l -0.222208,0.68729 q -0.496092,-0.16019 -0.847491,-0.16019 -0.485756,0 -0.7183,0.32556 -0.232543,0.32039 -0.232543,1.03352 v 0.3669 h 1.441768 z m 1.891351,4.99709 h -0.857826 v -5.66372 h 0.857826 z m -0.930172,-7.1985 q 0,-0.29456 0.144693,-0.42892 0.144694,-0.13952 0.361734,-0.13952 0.206705,0 0.356566,0.13952 0.149861,0.13953 0.149861,0.42892 0,0.28938 -0.149861,0.43408 -0.149861,0.13952 -0.356566,0.13952 -0.21704,0 -0.361734,-0.13952 -0.144693,-0.1447 -0.144693,-0.43408 z"
         style="line-height:1;text-align:center;text-anchor:middle;fill:#f7ffff;fill-opacity:0.701961;stroke:#121212;stroke-width:0.2;stroke-miterlimit:4;stroke-dasharray:none;stroke-opacity:0.94902"
         id="path839" />
      <path
         d="m 58.901799,133.76689 v -3.66385 q 0,-0.69246 -0.315225,-1.03352 -0.315225,-0.34106 -0.987017,-0.34106 -0.888832,0 -1.302242,0.48058 -0.41341,0.48059 -0.41341,1.58647 v 2.97138 h -0.857826 v -5.66372 h 0.69763 l 0.139525,0.77515 h 0.04134 q 0.263549,-0.41858 0.738971,-0.64596 0.475422,-0.23254 1.059364,-0.23254 1.02319,0 1.539952,0.49609 0.516763,0.49093 0.516763,1.57613 v 3.69485 z"
         style="line-height:1;text-align:center;text-anchor:middle;fill:#f7ffff;fill-opacity:0.701961;stroke:#121212;stroke-width:0.2;stroke-miterlimit:4;stroke-dasharray:none;stroke-opacity:0.94902"
         id="path841" />
      <path
         d="m 62.379612,133.76689 h -0.857827 v -5.66372 h 0.857827 z m -0.930173,-7.1985 q 0,-0.29456 0.144693,-0.42892 0.144694,-0.13952 0.361734,-0.13952 0.206705,0 0.356566,0.13952 0.149862,0.13953 0.149862,0.42892 0,0.28938 -0.149862,0.43408 -0.149861,0.13952 -0.356566,0.13952 -0.21704,0 -0.361734,-0.13952 -0.144693,-0.1447 -0.144693,-0.43408 z"
         style="line-height:1;text-align:center;text-anchor:middle;fill:#f7ffff;fill-opacity:0.701961;stroke:#121212;stroke-width:0.2;stroke-miterlimit:4;stroke-dasharray:none;stroke-opacity:0.94902"
         id="path843" />
      <path
         d="m 66.027956,133.16228 q 0.227375,0 0.439248,-0.031 0.211873,-0.0362 0.335896,-0.0723 v 0.65629 q -0.139526,0.0672 -0.41341,0.10852 -0.268717,0.0465 -0.485757,0.0465 -1.643306,0 -1.643306,-1.73115 V 128.7698 H 63.44931 v -0.41341 l 0.811317,-0.35657 0.361734,-1.20922 h 0.496092 v 1.31257 h 1.643306 v 0.66663 h -1.643306 v 3.33312 q 0,0.51159 0.242879,0.78547 0.242878,0.27389 0.666624,0.27389 z"
         style="line-height:1;text-align:center;text-anchor:middle;fill:#f7ffff;fill-opacity:0.701961;stroke:#121212;stroke-width:0.2;stroke-miterlimit:4;stroke-dasharray:none;stroke-opacity:0.94902"
         id="path845" />
      <path
         d="M 68.792636,133.76689 H 67.93481 v -5.66372 h 0.857826 z m -0.930172,-7.1985 q 0,-0.29456 0.144693,-0.42892 0.144694,-0.13952 0.361734,-0.13952 0.206705,0 0.356566,0.13952 0.149861,0.13953 0.149861,0.42892 0,0.28938 -0.149861,0.43408 -0.149861,0.13952 -0.356566,0.13952 -0.21704,0 -0.361734,-0.13952 -0.144693,-0.1447 -0.144693,-0.43408 z"
         style="line-height:1;text-align:center;text-anchor:middle;fill:#f7ffff;fill-opacity:0.701961;stroke:#121212;stroke-width:0.2;stroke-miterlimit:4;stroke-dasharray:none;stroke-opacity:0.94902"
         id="path847" />
      <path
         d="m 71.851871,133.76689 -2.149733,-5.66372 h 0.919838 l 1.21956,3.35896 q 0.41341,1.17822 0.485757,1.52962 h 0.04134 q 0.05684,-0.27389 0.356566,-1.13171 0.30489,-0.863 1.359086,-3.75687 h 0.919837 l -2.149732,5.66372 z"
         style="line-height:1;text-align:center;text-anchor:middle;fill:#f7ffff;fill-opacity:0.701961;stroke:#121212;stroke-width:0.2;stroke-miterlimit:4;stroke-dasharray:none;stroke-opacity:0.94902"
         id="path849" />
      <path
         d="m 78.306239,133.87024 q -1.255734,0 -1.984369,-0.7648 -0.723468,-0.76481 -0.723468,-2.1239 0,-1.36942 0.671792,-2.17557 0.676959,-0.80615 1.813837,-0.80615 1.064531,0 1.684646,0.7028 0.620115,0.69763 0.620115,1.84484 v 0.5426 h -3.901558 q 0.02584,0.99735 0.50126,1.51412 0.480589,0.51676 1.34875,0.51676 0.91467,0 1.80867,-0.38241 v 0.76481 q -0.454751,0.19637 -0.862994,0.27905 -0.403075,0.0879 -0.976681,0.0879 z m -0.232544,-5.15212 q -0.682126,0 -1.090369,0.44442 -0.403075,0.44441 -0.475422,1.22989 h 2.961051 q 0,-0.81132 -0.361734,-1.24023 -0.361734,-0.43408 -1.033526,-0.43408 z"
         style="line-height:1;text-align:center;text-anchor:middle;fill:#f7ffff;fill-opacity:0.701961;stroke:#121212;stroke-width:0.2;stroke-miterlimit:4;stroke-dasharray:none;stroke-opacity:0.94902"
         id="path851" />
      <path
         d="m 87.964531,126.88878 q -1.245398,0 -1.968865,0.83199 -0.7183,0.82682 -0.7183,2.26859 0,1.48311 0.692461,2.29442 0.69763,0.80615 1.984369,0.80615 0.790647,0 1.803502,-0.28422 v 0.76998 q -0.785479,0.29455 -1.93786,0.29455 -1.669144,0 -2.578646,-1.01285 -0.904335,-1.01286 -0.904335,-2.87837 0,-1.16788 0.434081,-2.04638 0.439248,-0.8785 1.260901,-1.35392 0.82682,-0.47542 1.943028,-0.47542 1.188554,0 2.077386,0.43408 l -0.372069,0.75448 q -0.857827,-0.40308 -1.715653,-0.40308 z"
         style="line-height:1;text-align:center;text-anchor:middle;fill:#f7ffff;fill-opacity:0.701961;stroke:#121212;stroke-width:0.2;stroke-miterlimit:4;stroke-dasharray:none;stroke-opacity:0.94902"
         id="path853" />
      <path
         d="m 95.152701,133.76689 v -3.66385 q 0,-0.69246 -0.315225,-1.03352 -0.315225,-0.34106 -0.987017,-0.34106 -0.893999,0 -1.307409,0.48575 -0.408243,0.48576 -0.408243,1.59163 v 2.96105 h -0.857826 v -8.04083 h 0.857826 v 2.43396 q 0,0.43924 -0.04134,0.72863 h 0.05168 q 0.253214,-0.40824 0.718301,-0.64078 0.470254,-0.23771 1.069698,-0.23771 1.038693,0 1.555456,0.49609 0.52193,0.49092 0.52193,1.56579 v 3.69485 z"
         style="line-height:1;text-align:center;text-anchor:middle;fill:#f7ffff;fill-opacity:0.701961;stroke:#121212;stroke-width:0.2;stroke-miterlimit:4;stroke-dasharray:none;stroke-opacity:0.94902"
         id="path855" />
      <path
         d="m 101.25567,133.76689 -0.17054,-0.80615 h -0.0413 q -0.42374,0.53227 -0.84749,0.72347 -0.418575,0.18603 -1.049026,0.18603 -0.842323,0 -1.322912,-0.43408 -0.475422,-0.43408 -0.475422,-1.23506 0,-1.71565 2.74401,-1.79833 l 0.96118,-0.031 v -0.3514 q 0,-0.66662 -0.28939,-0.98185 -0.28422,-0.32039 -0.914668,-0.32039 -0.707965,0 -1.601965,0.43408 l -0.263549,-0.65629 q 0.418578,-0.22737 0.91467,-0.35656 0.50126,-0.12919 1.00252,-0.12919 1.012852,0 1.498612,0.44958 0.49092,0.44958 0.49092,1.44177 v 3.86538 z m -1.937864,-0.60461 q 0.800984,0 1.255734,-0.43925 0.45992,-0.43925 0.45992,-1.22989 v -0.5116 l -0.85783,0.0362 q -1.023188,0.0362 -1.477939,0.3204 -0.449584,0.27905 -0.449584,0.87333 0,0.46508 0.279052,0.70796 0.28422,0.24288 0.790647,0.24288 z"
         style="line-height:1;text-align:center;text-anchor:middle;fill:#f7ffff;fill-opacity:0.701961;stroke:#121212;stroke-width:0.2;stroke-miterlimit:4;stroke-dasharray:none;stroke-opacity:0.94902"
         id="path857" />
      <path
         d="m 107.53433,133.76689 v -3.66385 q 0,-0.69246 -0.31522,-1.03352 -0.31523,-0.34106 -0.98702,-0.34106 -0.88883,0 -1.30224,0.48058 -0.41341,0.48059 -0.41341,1.58647 v 2.97138 h -0.85783 v -5.66372 h 0.69763 l 0.13953,0.77515 h 0.0413 q 0.26355,-0.41858 0.73897,-0.64596 0.47542,-0.23254 1.05936,-0.23254 1.02319,0 1.53995,0.49609 0.51677,0.49093 0.51677,1.57613 v 3.69485 z"
         style="line-height:1;text-align:center;text-anchor:middle;fill:#f7ffff;fill-opacity:0.701961;stroke:#121212;stroke-width:0.2;stroke-miterlimit:4;stroke-dasharray:none;stroke-opacity:0.94902"
         id="path859" />
      <path
         d="m 114.78968,128.10317 v 0.5426 l -1.04902,0.12403 q 0.14469,0.18086 0.25838,0.47542 0.11369,0.28939 0.11369,0.65629 0,0.83198 -0.56844,1.32808 -0.56844,0.49609 -1.56063,0.49609 -0.25321,0 -0.47542,-0.0413 -0.54777,0.28938 -0.54777,0.72863 0,0.23255 0.19121,0.34623 0.1912,0.10852 0.65628,0.10852 h 1.00252 q 0.91984,0 1.41077,0.38758 0.49609,0.38757 0.49609,1.12654 0,0.94051 -0.75448,1.43143 -0.75447,0.49609 -2.2014,0.49609 -1.11104,0 -1.71566,-0.41341 -0.59944,-0.41341 -0.59944,-1.16788 0,-0.51676 0.33073,-0.894 0.33072,-0.37724 0.93017,-0.51159 -0.21704,-0.0982 -0.3669,-0.30489 -0.1447,-0.20671 -0.1447,-0.48059 0,-0.31006 0.16537,-0.5426 0.16536,-0.23255 0.52193,-0.44959 -0.43925,-0.18086 -0.7183,-0.61495 -0.27389,-0.43408 -0.27389,-0.99218 0,-0.93017 0.55811,-1.43143 0.5581,-0.50643 1.58129,-0.50643 0.44442,0 0.80098,0.10335 z m -4.5165,6.61456 q 0,0.45992 0.38757,0.69763 0.38757,0.23772 1.11104,0.23772 1.08003,0 1.5968,-0.32557 0.52193,-0.32039 0.52193,-0.87332 0,-0.45992 -0.28422,-0.64079 -0.28422,-0.1757 -1.0697,-0.1757 h -1.02836 q -0.58394,0 -0.9095,0.27905 -0.32556,0.27905 -0.32556,0.80098 z m 0.46509,-4.80072 q 0,0.59428 0.33589,0.89917 0.3359,0.30489 0.93534,0.30489 1.25573,0 1.25573,-1.21956 0,-1.27641 -1.27123,-1.27641 -0.60461,0 -0.93017,0.32556 -0.32556,0.32556 -0.32556,0.96635 z"
         style="line-height:1;text-align:center;text-anchor:middle;fill:#f7ffff;fill-opacity:0.701961;stroke:#121212;stroke-width:0.2;stroke-miterlimit:4;stroke-dasharray:none;stroke-opacity:0.94902"
         id="path861" />
      <path
         d="m 118.34501,133.87024 q -1.25574,0 -1.98437,-0.7648 -0.72347,-0.76481 -0.72347,-2.1239 0,-1.36942 0.67179,-2.17557 0.67696,-0.80615 1.81384,-0.80615 1.06453,0 1.68465,0.7028 0.62011,0.69763 0.62011,1.84484 v 0.5426 H 116.526 q 0.0258,0.99735 0.50126,1.51412 0.48059,0.51676 1.34875,0.51676 0.91467,0 1.80867,-0.38241 v 0.76481 q -0.45475,0.19637 -0.86299,0.27905 -0.40308,0.0879 -0.97668,0.0879 z m -0.23255,-5.15212 q -0.68212,0 -1.09037,0.44442 -0.40307,0.44441 -0.47542,1.22989 h 2.96105 q 0,-0.81132 -0.36173,-1.24023 -0.36173,-0.43408 -1.03353,-0.43408 z"
         style="line-height:1;text-align:center;text-anchor:middle;fill:#f7ffff;fill-opacity:0.701961;stroke:#121212;stroke-width:0.2;stroke-miterlimit:4;stroke-dasharray:none;stroke-opacity:0.94902"
         id="path863" />
      <path
         d="M 122.74783,133.76689 H 121.89 v -8.04083 h 0.85783 z"
         style="line-height:1;text-align:center;text-anchor:middle;fill:#f7ffff;fill-opacity:0.701961;stroke:#121212;stroke-width:0.2;stroke-miterlimit:4;stroke-dasharray:none;stroke-opacity:0.94902"
         id="path865" />
      <path
         d="m 129.4554,130.92986 q 0,1.38493 -0.69763,2.16524 -0.69762,0.77514 -1.92752,0.77514 -0.75964,0 -1.34875,-0.35656 -0.58911,-0.35657 -0.9095,-1.02319 -0.3204,-0.66663 -0.3204,-1.56063 0,-1.38492 0.69247,-2.1549 0.69246,-0.77514 1.92235,-0.77514 1.18856,0 1.88619,0.79065 0.70279,0.79064 0.70279,2.13939 z m -4.31496,0 q 0,1.08521 0.43408,1.65364 0.43408,0.56844 1.2764,0.56844 0.84232,0 1.2764,-0.56327 0.43925,-0.56844 0.43925,-1.65881 0,-1.08003 -0.43925,-1.63813 -0.43408,-0.56327 -1.28673,-0.56327 -0.84233,0 -1.27124,0.55293 -0.42891,0.55294 -0.42891,1.64847 z"
         style="line-height:1;text-align:center;text-anchor:middle;fill:#f7ffff;fill-opacity:0.701961;stroke:#121212;stroke-width:0.2;stroke-miterlimit:4;stroke-dasharray:none;stroke-opacity:0.94902"
         id="path867" />
      <path
         d="m 135.59455,128.10317 v 0.5426 l -1.04903,0.12403 q 0.14469,0.18086 0.25838,0.47542 0.11369,0.28939 0.11369,0.65629 0,0.83198 -0.56844,1.32808 -0.56844,0.49609 -1.56062,0.49609 -0.25322,0 -0.47543,-0.0413 -0.54776,0.28938 -0.54776,0.72863 0,0.23255 0.1912,0.34623 0.1912,0.10852 0.65629,0.10852 h 1.00252 q 0.91983,0 1.41076,0.38758 0.49609,0.38757 0.49609,1.12654 0,0.94051 -0.75447,1.43143 -0.75448,0.49609 -2.20141,0.49609 -1.11104,0 -1.71565,-0.41341 -0.59945,-0.41341 -0.59945,-1.16788 0,-0.51676 0.33073,-0.894 0.33073,-0.37724 0.93017,-0.51159 -0.21704,-0.0982 -0.3669,-0.30489 -0.14469,-0.20671 -0.14469,-0.48059 0,-0.31006 0.16536,-0.5426 0.16537,-0.23255 0.52193,-0.44959 -0.43925,-0.18086 -0.7183,-0.61495 -0.27388,-0.43408 -0.27388,-0.99218 0,-0.93017 0.5581,-1.43143 0.5581,-0.50643 1.58129,-0.50643 0.44442,0 0.80099,0.10335 z m -4.51651,6.61456 q 0,0.45992 0.38757,0.69763 0.38758,0.23772 1.11104,0.23772 1.08004,0 1.5968,-0.32557 0.52193,-0.32039 0.52193,-0.87332 0,-0.45992 -0.28422,-0.64079 -0.28422,-0.1757 -1.0697,-0.1757 h -1.02836 q -0.58394,0 -0.9095,0.27905 -0.32556,0.27905 -0.32556,0.80098 z m 0.46509,-4.80072 q 0,0.59428 0.33589,0.89917 0.3359,0.30489 0.93534,0.30489 1.25574,0 1.25574,-1.21956 0,-1.27641 -1.27124,-1.27641 -0.60461,0 -0.93017,0.32556 -0.32556,0.32556 -0.32556,0.96635 z"
         style="line-height:1;text-align:center;text-anchor:middle;fill:#f7ffff;fill-opacity:0.701961;stroke:#121212;stroke-width:0.2;stroke-miterlimit:4;stroke-dasharray:none;stroke-opacity:0.94902"
         id="path869" />
      <path
         d="m 58.989649,140.56232 q 0,1.81384 -0.919838,2.85253 -0.91467,1.03869 -2.54764,1.03869 -1.669143,0 -2.578646,-1.01802 -0.904334,-1.02319 -0.904334,-2.88353 0,-1.84485 0.909502,-2.8577 0.909502,-1.01802 2.583813,-1.01802 1.627803,0 2.542473,1.03352 0.91467,1.03353 0.91467,2.85253 z m -6.020286,0 q 0,1.53479 0.651121,2.3306 0.656289,0.79065 1.901687,0.79065 1.255733,0 1.896519,-0.79065 0.640786,-0.79065 0.640786,-2.3306 0,-1.52445 -0.640786,-2.30993 -0.635618,-0.79065 -1.886184,-0.79065 -1.255733,0 -1.912022,0.79582 -0.651121,0.79065 -0.651121,2.30476 z"
         style="line-height:1;text-align:center;text-anchor:middle;fill:#f7ffff;fill-opacity:0.701961;stroke:#121212;stroke-width:0.2;stroke-miterlimit:4;stroke-dasharray:none;stroke-opacity:0.94902"
         id="path871" />
      <path
         d="m 63.097912,139.3531 h -1.441768 v 4.99709 h -0.857826 v -4.99709 h -1.012855 v -0.38758 l 1.012855,-0.31005 v -0.31523 q 0,-2.08772 1.824172,-2.08772 0.449584,0 1.054196,0.18087 l -0.222208,0.68729 q -0.496092,-0.1602 -0.84749,-0.1602 -0.485757,0 -0.718301,0.32557 -0.232543,0.32039 -0.232543,1.03352 v 0.3669 h 1.441768 z"
         style="line-height:1;text-align:center;text-anchor:middle;fill:#f7ffff;fill-opacity:0.701961;stroke:#121212;stroke-width:0.2;stroke-miterlimit:4;stroke-dasharray:none;stroke-opacity:0.94902"
         id="path873" />
      <path
         d="m 71.800195,138.99653 q 0,1.14721 -0.785479,1.76733 -0.780311,0.61495 -2.237582,0.61495 h -0.888832 v 2.97138 h -0.878497 v -7.55507 h 1.958531 q 2.831859,0 2.831859,2.20141 z m -3.911893,1.6278 h 0.790647 q 1.167884,0 1.689814,-0.37723 0.52193,-0.37724 0.52193,-1.20923 0,-0.74931 -0.490924,-1.11621 -0.490925,-0.3669 -1.529618,-0.3669 h -0.981849 z"
         style="line-height:1;text-align:center;text-anchor:middle;fill:#f7ffff;fill-opacity:0.701961;stroke:#121212;stroke-width:0.2;stroke-miterlimit:4;stroke-dasharray:none;stroke-opacity:0.94902"
         id="path875" />
      <path
         d="m 75.836111,138.58312 q 0.377237,0 0.676959,0.062 l -0.118855,0.79582 q -0.351399,-0.0775 -0.620115,-0.0775 -0.687295,0 -1.178219,0.5581 -0.485757,0.55811 -0.485757,1.3901 v 3.03856 h -0.857826 v -5.66372 h 0.707965 l 0.09819,1.04903 h 0.04134 q 0.315225,-0.55294 0.759641,-0.85266 0.444416,-0.29972 0.976681,-0.29972 z"
         style="line-height:1;text-align:center;text-anchor:middle;fill:#f7ffff;fill-opacity:0.701961;stroke:#121212;stroke-width:0.2;stroke-miterlimit:4;stroke-dasharray:none;stroke-opacity:0.94902"
         id="path877" />
      <path
         d="m 82.46101,141.51316 q 0,1.38493 -0.69763,2.16524 -0.697629,0.77514 -1.927525,0.77514 -0.759641,0 -1.34875,-0.35656 -0.58911,-0.35657 -0.909502,-1.02319 -0.320393,-0.66663 -0.320393,-1.56063 0,-1.38492 0.692462,-2.1549 0.692462,-0.77514 1.922357,-0.77514 1.188554,0 1.886184,0.79065 0.702797,0.79064 0.702797,2.13939 z m -4.314969,0 q 0,1.08521 0.434081,1.65364 0.434081,0.56844 1.276404,0.56844 0.842323,0 1.276404,-0.56327 0.439248,-0.56844 0.439248,-1.65881 0,-1.08003 -0.439248,-1.63813 -0.434081,-0.56327 -1.286739,-0.56327 -0.842324,0 -1.271237,0.55293 -0.428913,0.55294 -0.428913,1.64847 z"
         style="line-height:1;text-align:center;text-anchor:middle;fill:#f7ffff;fill-opacity:0.701961;stroke:#121212;stroke-width:0.2;stroke-miterlimit:4;stroke-dasharray:none;stroke-opacity:0.94902"
         id="path879" />
      <path
         d="m 88.600151,138.68647 v 0.5426 l -1.049028,0.12403 q 0.144693,0.18086 0.258381,0.47542 0.113688,0.28938 0.113688,0.65629 0,0.83198 -0.568439,1.32808 -0.568439,0.49609 -1.560623,0.49609 -0.253214,0 -0.475422,-0.0413 -0.547768,0.28938 -0.547768,0.72863 0,0.23255 0.191202,0.34623 0.191202,0.10852 0.656288,0.10852 h 1.00252 q 0.919838,0 1.410762,0.38758 0.496092,0.38757 0.496092,1.12654 0,0.94051 -0.754473,1.43143 -0.754474,0.49609 -2.201409,0.49609 -1.11104,0 -1.715652,-0.41341 -0.599445,-0.41341 -0.599445,-1.16788 0,-0.51676 0.330728,-0.894 0.330728,-0.37724 0.930173,-0.51159 -0.21704,-0.0982 -0.366902,-0.30489 -0.144693,-0.20671 -0.144693,-0.48059 0,-0.31006 0.165364,-0.5426 0.165364,-0.23255 0.52193,-0.44959 -0.439248,-0.18087 -0.7183,-0.61495 -0.273884,-0.43408 -0.273884,-0.99218 0,-0.93017 0.558104,-1.43143 0.558103,-0.50643 1.581293,-0.50643 0.444416,0 0.800983,0.10335 z m -4.516506,6.61456 q 0,0.45992 0.387572,0.69763 0.387572,0.23771 1.11104,0.23771 1.080034,0 1.596797,-0.32556 0.52193,-0.32039 0.52193,-0.87332 0,-0.45992 -0.284219,-0.64079 -0.28422,-0.1757 -1.069699,-0.1757 h -1.028358 q -0.583942,0 -0.909502,0.27905 -0.325561,0.27905 -0.325561,0.80098 z m 0.465087,-4.80072 q 0,0.59428 0.335895,0.89917 0.335896,0.30489 0.935341,0.30489 1.255733,0 1.255733,-1.21956 0,-1.27641 -1.271236,-1.27641 -0.604612,0 -0.930173,0.32556 -0.32556,0.32556 -0.32556,0.96635 z"
         style="line-height:1;text-align:center;text-anchor:middle;fill:#f7ffff;fill-opacity:0.701961;stroke:#121212;stroke-width:0.2;stroke-miterlimit:4;stroke-dasharray:none;stroke-opacity:0.94902"
         id="path881" />
      <path
         d="m 92.346678,138.58312 q 0.377237,0 0.676959,0.062 l -0.118855,0.79582 q -0.351399,-0.0775 -0.620116,-0.0775 -0.687294,0 -1.178218,0.5581 -0.485757,0.55811 -0.485757,1.3901 v 3.03856 h -0.857826 v -5.66372 h 0.707964 l 0.09819,1.04903 h 0.04134 q 0.315226,-0.55294 0.759641,-0.85266 0.444416,-0.29972 0.976682,-0.29972 z"
         style="line-height:1;text-align:center;text-anchor:middle;fill:#f7ffff;fill-opacity:0.701961;stroke:#121212;stroke-width:0.2;stroke-miterlimit:4;stroke-dasharray:none;stroke-opacity:0.94902"
         id="path883" />
      <path
         d="m 96.475613,144.45354 q -1.255734,0 -1.984369,-0.76481 -0.723468,-0.7648 -0.723468,-2.12389 0,-1.36942 0.671792,-2.17557 0.676959,-0.80615 1.813837,-0.80615 1.064531,0 1.684646,0.7028 0.620115,0.69763 0.620115,1.84484 v 0.5426 h -3.901558 q 0.02584,0.99735 0.50126,1.51412 0.480589,0.51676 1.348751,0.51676 0.914669,0 1.808669,-0.38241 v 0.76481 q -0.454751,0.19637 -0.862994,0.27905 -0.403075,0.0879 -0.976681,0.0879 z m -0.232543,-5.15212 q -0.682127,0 -1.09037,0.44442 -0.403075,0.44441 -0.475421,1.22989 h 2.96105 q 0,-0.81132 -0.361734,-1.24023 -0.361734,-0.43408 -1.033525,-0.43408 z"
         style="line-height:1;text-align:center;text-anchor:middle;fill:#f7ffff;fill-opacity:0.701961;stroke:#121212;stroke-width:0.2;stroke-miterlimit:4;stroke-dasharray:none;stroke-opacity:0.94902"
         id="path885" />
      <path
         d="m 103.67412,142.80507 q 0,0.79065 -0.58911,1.21956 -0.58911,0.42891 -1.65364,0.42891 -1.12655,0 -1.756996,-0.35656 v -0.79582 q 0.408246,0.20671 0.873326,0.32556 0.47026,0.11886 0.90434,0.11886 0.67179,0 1.03352,-0.21187 0.36174,-0.21704 0.36174,-0.65629 0,-0.33073 -0.28939,-0.56327 -0.28422,-0.23771 -1.11621,-0.55811 -0.79064,-0.29455 -1.12654,-0.51159 -0.330729,-0.22221 -0.496093,-0.50126 -0.160196,-0.27905 -0.160196,-0.66663 0,-0.69246 0.563269,-1.09037 0.56327,-0.40307 1.54512,-0.40307 0.91467,0 1.788,0.37207 l -0.30489,0.69763 q -0.85266,-0.3514 -1.54512,-0.3514 -0.60978,0 -0.91984,0.1912 -0.31005,0.1912 -0.31005,0.5271 0,0.22738 0.11368,0.38757 0.11886,0.1602 0.37724,0.30489 0.25838,0.1447 0.99218,0.41858 1.00769,0.3669 1.35909,0.73897 0.35657,0.37207 0.35657,0.93534 z"
         style="line-height:1;text-align:center;text-anchor:middle;fill:#f7ffff;fill-opacity:0.701961;stroke:#121212;stroke-width:0.2;stroke-miterlimit:4;stroke-dasharray:none;stroke-opacity:0.94902"
         id="path887" />
      <path
         d="m 108.72289,142.80507 q 0,0.79065 -0.58911,1.21956 -0.58911,0.42891 -1.65364,0.42891 -1.12655,0 -1.757,-0.35656 v -0.79582 q 0.40825,0.20671 0.87333,0.32556 0.47026,0.11886 0.90434,0.11886 0.67179,0 1.03352,-0.21187 0.36174,-0.21704 0.36174,-0.65629 0,-0.33073 -0.28939,-0.56327 -0.28422,-0.23771 -1.11621,-0.55811 -0.79064,-0.29455 -1.12654,-0.51159 -0.33073,-0.22221 -0.49609,-0.50126 -0.1602,-0.27905 -0.1602,-0.66663 0,-0.69246 0.56327,-1.09037 0.56327,-0.40307 1.54512,-0.40307 0.91467,0 1.788,0.37207 l -0.30489,0.69763 q -0.85266,-0.3514 -1.54512,-0.3514 -0.60978,0 -0.91984,0.1912 -0.31005,0.1912 -0.31005,0.5271 0,0.22738 0.11368,0.38757 0.11886,0.1602 0.37724,0.30489 0.25838,0.1447 0.99219,0.41858 1.00768,0.3669 1.35908,0.73897 0.35657,0.37207 0.35657,0.93534 z"
         style="line-height:1;text-align:center;text-anchor:middle;fill:#f7ffff;fill-opacity:0.701961;stroke:#121212;stroke-width:0.2;stroke-miterlimit:4;stroke-dasharray:none;stroke-opacity:0.94902"
         id="path889" />
    </g>
  </g>
</svg>
